<?xml version="1.0" encoding="UTF-8"?>
<svg height="16px" viewBox="0 0 16 16" width="16px" xmlns="http://www.w3.org/2000/svg">
    <path d="m 13.207031 2.773438 l -1.5 1.488281 c -1.074219 -0.785157 -2.394531 -1.257813 -3.824219 -1.257813 c -3.578124 0 -6.5 2.921875 -6.5 6.5 s 2.921876 6.5 6.5 6.5 c 3.578126 0 6.5 -2.921875 6.5 -6.5 c 0 -1.429687 -0.472656 -2.75 -1.261718 -3.824218 l 1.496094 -1.488282 z m -5.324219 2.230468 c 2.496094 0 4.5 2.003906 4.5 4.5 s -2.003906 4.5 -4.5 4.5 c -2.496093 0 -4.5 -2.003906 -4.5 -4.5 s 2.003907 -4.5 4.5 -4.5 z m 0 0"/>
    <path d="m 5.261719 -0.00390625 c -0.359375 -0.00390625 -0.695313 0.18359425 -0.875 0.49609425 c -0.183594 0.3125 -0.183594 0.699218 0 1.007812 c 0.179687 0.3125 0.515625 0.503906 0.875 0.496094 h 5.242187 c 0.359375 0.007812 0.695313 -0.183594 0.875 -0.496094 c 0.183594 -0.308594 0.183594 -0.695312 0 -1.007812 c -0.179687 -0.3125 -0.515625 -0.5000005 -0.875 -0.49609425 z m 0 0"/>
    <path d="m 7.382812 9.992188 h 1 v -4 h -1 z m 0 0"/>
</svg>
