<?xml version="1.0" encoding="UTF-8"?>
<svg height="128px" viewBox="0 0 128 128" width="128px" xmlns="http://www.w3.org/2000/svg" xmlns:xlink="http://www.w3.org/1999/xlink">
    <clipPath id="a">
        <rect height="128" width="128"/>
    </clipPath>
    <clipPath id="b">
        <rect height="128" width="128"/>
    </clipPath>
    <filter id="c" height="100%" width="100%" x="0%" y="0%">
        <feColorMatrix in="SourceGraphic" type="matrix" values="0 0 0 0 1 0 0 0 0 1 0 0 0 0 1 0 0 0 1 0"/>
    </filter>
    <mask id="d">
        <g clip-path="url(#b)" filter="url(#c)">
            <g clip-path="url(#a)">
                <path d="m 20.144531 16 h 88 c 4.417969 0 8 3.582031 8 8 v 84 c 0 4.417969 -3.582031 8 -8 8 h -88 c -4.417969 0 -8 -3.582031 -8 -8 v -84 c 0 -4.417969 3.582031 -8 8 -8 z m 0 0" fill="#3584e4"/>
                <path d="m 20.144531 12 h 88 c 4.417969 0 8 3.582031 8 8 v 84 c 0 4.417969 -3.582031 8 -8 8 h -88 c -4.417969 0 -8 -3.582031 -8 -8 v -84 c 0 -4.417969 3.582031 -8 8 -8 z m 0 0" fill="#62a0ea"/>
                <path d="m 83.742188 42.328125 l -5.644532 5.601563 c -4.042968 -2.953126 -9.015625 -4.734376 -14.394531 -4.734376 c -13.464844 0 -24.460937 11 -24.460937 24.464844 s 10.996093 24.464844 24.460937 24.464844 s 24.464844 -11 24.464844 -24.464844 c 0 -5.378906 -1.78125 -10.351562 -4.75 -14.394531 l 5.628906 -5.597656 z m -20.039063 8.394531 c 9.394531 0 16.9375 7.542969 16.9375 16.9375 c 0 9.394532 -7.542969 16.9375 -16.9375 16.9375 s -16.9375 -7.542968 -16.9375 -16.9375 c 0 -9.394531 7.542969 -16.9375 16.9375 -16.9375 z m 0 0" fill="#ffffff"/>
                <path d="m 53.839844 31.878906 c -1.355469 -0.015625 -2.617188 0.6875 -3.292969 1.867188 c -0.691406 1.175781 -0.691406 2.628906 0 3.789062 c 0.675781 1.179688 1.9375 1.898438 3.292969 1.867188 h 19.726562 c 1.355469 0.03125 2.617188 -0.6875 3.292969 -1.867188 c 0.691406 -1.160156 0.691406 -2.613281 0 -3.789062 c -0.675781 -1.179688 -1.9375 -1.882813 -3.292969 -1.867188 z m 0 0" fill="#ffffff"/>
                <path d="m 61.820312 69.496094 h 3.765626 v -15.050782 h -3.765626 z m 0 0" fill="#ffffff"/>
            </g>
        </g>
    </mask>
    <mask id="e">
        <g filter="url(#c)">
            <rect fill-opacity="0.8" height="128" width="128"/>
        </g>
    </mask>
    <linearGradient id="f" gradientTransform="matrix(0 0.37 -0.98462 0 295.38501 -30.360001)" gradientUnits="userSpaceOnUse" x1="300" x2="428" y1="235" y2="235">
        <stop offset="0" stop-color="#f9f06b"/>
        <stop offset="1" stop-color="#f5c211"/>
    </linearGradient>
    <clipPath id="g">
        <rect height="128" width="128"/>
    </clipPath>
    <clipPath id="h">
        <rect height="128" width="128"/>
    </clipPath>
    <path d="m 20.144531 16 h 88 c 4.417969 0 8 3.582031 8 8 v 84 c 0 4.417969 -3.582031 8 -8 8 h -88 c -4.417969 0 -8 -3.582031 -8 -8 v -84 c 0 -4.417969 3.582031 -8 8 -8 z m 0 0" fill="#3584e4"/>
    <path d="m 20.144531 12 h 88 c 4.417969 0 8 3.582031 8 8 v 84 c 0 4.417969 -3.582031 8 -8 8 h -88 c -4.417969 0 -8 -3.582031 -8 -8 v -84 c 0 -4.417969 3.582031 -8 8 -8 z m 0 0" fill="#62a0ea"/>
    <g fill="#ffffff">
        <path d="m 83.742188 42.328125 l -5.644532 5.601563 c -4.042968 -2.953126 -9.015625 -4.734376 -14.394531 -4.734376 c -13.464844 0 -24.460937 11 -24.460937 24.464844 s 10.996093 24.464844 24.460937 24.464844 s 24.464844 -11 24.464844 -24.464844 c 0 -5.378906 -1.78125 -10.351562 -4.75 -14.394531 l 5.628906 -5.597656 z m -20.039063 8.394531 c 9.394531 0 16.9375 7.542969 16.9375 16.9375 c 0 9.394532 -7.542969 16.9375 -16.9375 16.9375 s -16.9375 -7.542968 -16.9375 -16.9375 c 0 -9.394531 7.542969 -16.9375 16.9375 -16.9375 z m 0 0"/>
        <path d="m 53.839844 31.878906 c -1.355469 -0.015625 -2.617188 0.6875 -3.292969 1.867188 c -0.691406 1.175781 -0.691406 2.628906 0 3.789062 c 0.675781 1.179688 1.9375 1.898438 3.292969 1.867188 h 19.726562 c 1.355469 0.03125 2.617188 -0.6875 3.292969 -1.867188 c 0.691406 -1.160156 0.691406 -2.613281 0 -3.789062 c -0.675781 -1.179688 -1.9375 -1.882813 -3.292969 -1.867188 z m 0 0"/>
        <path d="m 61.820312 69.496094 h 3.765626 v -15.050782 h -3.765626 z m 0 0"/>
    </g>
    <g clip-path="url(#h)" mask="url(#d)">
        <g clip-path="url(#g)" mask="url(#e)">
            <path d="m 128 80.640625 v 47.359375 h -128 v -47.359375 z m 0 0" fill="url(#f)"/>
            <path d="m 13.308594 80.640625 l 47.355468 47.359375 h 21.214844 l -47.359375 -47.359375 z m 42.421875 0 l 47.363281 47.359375 h 21.214844 l -47.363282 -47.359375 z m 42.429687 0 l 29.839844 29.839844 v -21.210938 l -8.628906 -8.628906 z m -98.160156 7.90625 v 21.214844 l 18.238281 18.238281 h 21.214844 z m 0 0"/>
        </g>
    </g>
</svg>
